<?xml version="1.0" standalone="no"?>
<!DOCTYPE svg PUBLIC "-//W3C//DTD SVG 20010904//EN"
 "http://www.w3.org/TR/2001/REC-SVG-20010904/DTD/svg10.dtd">
<svg version="1.0" xmlns="http://www.w3.org/2000/svg"
 width="128.000000pt" height="128.000000pt" viewBox="0 0 128.000000 128.000000"
 preserveAspectRatio="xMidYMid meet">
<metadata>
Created by potrace 1.11, written by Peter Selinger 2001-2013
</metadata>
<g transform="translate(0.000000,128.000000) scale(0.100000,-0.100000)"
fill="#000000" stroke="none">
<path d="M506 1126 c-83 -31 -121 -100 -132 -242 -15 -188 46 -265 231 -290
98 -13 125 -46 110 -134 -13 -77 -93 -157 -145 -145 -43 11 -55 31 -60 108 -5
71 -5 72 -34 75 -17 2 -49 1 -73 -3 l-43 -6 0 -72 c0 -63 4 -80 34 -132 45
-81 99 -110 206 -110 64 0 82 4 122 27 106 63 163 167 163 298 0 137 -54 194
-220 229 -121 26 -139 45 -133 147 4 90 29 124 89 124 53 0 69 -20 69 -86 l0
-54 75 0 75 0 0 76 c0 141 -55 192 -215 200 -54 3 -92 0 -119 -10z m231 -33
c58 -28 83 -73 83 -149 l0 -64 -55 0 -55 0 0 50 c0 67 -22 90 -89 90 -85 0
-121 -63 -109 -191 7 -74 35 -97 143 -120 162 -35 208 -79 209 -203 0 -89 -25
-163 -78 -223 -119 -135 -313 -119 -386 33 -21 43 -32 136 -17 150 4 4 29 9
57 12 l50 5 0 -65 c0 -77 22 -114 74 -124 106 -19 215 161 161 265 -17 34 -27
39 -127 56 -97 17 -150 44 -179 92 -21 34 -24 50 -23 138 1 209 63 281 232
271 41 -3 88 -12 109 -23z"/>
</g>
</svg>
